<svg width="27" height="25" viewBox="0 0 27 25" fill="none" xmlns="http://www.w3.org/2000/svg">
    <path d="M25.276 10.347v-1.05c0-1.921-1.292-3.536-3.035-3.999l-.004-1.732C22.237 1.876 20.89.5 19.231.5h-.16L5.002 4.952c-.32.02-.624.095-.91.208h-.037C1.82 5.16 0 7.016 0 9.297v10.267c0 2.28 1.819 4.136 4.054 4.136h17.168c2.235 0 4.054-1.855 4.054-4.136V18.2a2.215 2.215 0 0 0 1.39-2.064V12.41c0-.94-.578-1.742-1.39-2.063zm-.707 5.788a.074.074 0 0 1-.073.075H18.82a.074.074 0 0 1-.074-.075V12.41c0-.041.033-.075.074-.075h5.676c.04 0 .073.034.073.075v3.725zM19.36 2.648c.441.065.78.452.78.92l.003 1.593h-8.722l7.94-2.513zm1.862 18.913H4.055c-1.081 0-1.958-.894-1.958-1.997V9.297c0-1.104.877-1.998 1.958-1.998h17.167c1.081 0 1.957.894 1.957 1.998v.9h-4.36c-1.196 0-2.17.992-2.17 2.213v3.725c0 1.22.974 2.214 2.17 2.214h4.36v1.215c0 1.103-.876 1.997-1.957 1.997z" fill="#8F8C8C"/>
</svg>
