<svg width="28" height="25" viewBox="0 0 28 25" fill="none" xmlns="http://www.w3.org/2000/svg">
    <path fill-rule="evenodd" clip-rule="evenodd" d="M7.785.85a.958.958 0 0 1 .43-.316.948.948 0 0 1 .307-.033c.24.01.465.127.623.326.068.084.34.822.957 2.577.471 1.35.865 2.458.869 2.462a252 252 0 0 0 2.633.057c1.785.037 2.668.067 2.745.094.159.054.357.202.458.337.179.242.186.586.02.89-.08.15-.239.275-1.606 1.296-1.445 1.074-1.522 1.128-1.66 1.128-.125 0-.162-.017-.246-.111a.338.338 0 0 1-.06-.39c.023-.051.629-.523 1.515-1.187.926-.687 1.478-1.118 1.478-1.152a.234.234 0 0 0-.027-.097c-.016-.03-.744-.054-2.785-.094-1.67-.034-2.799-.068-2.853-.091a.374.374 0 0 1-.138-.088c-.026-.034-.451-1.202-.943-2.6l-.527-1.496-.389-1.107c-.013-.034-.06-.058-.114-.058-.091 0-.098.017-1 2.584-.573 1.63-.937 2.617-.984 2.677a.339.339 0 0 1-.185.108c-.06.01-1.327.044-2.82.07-2.461.051-2.714.058-2.754.112a.154.154 0 0 0-.034.098c.007.02.973.76 2.149 1.643 1.175.882 2.189 1.657 2.25 1.718.067.074.107.151.107.209 0 .053-.357 1.266-.794 2.7-.812 2.651-.822 2.698-.68 2.725.026.007.912-.586 1.966-1.31 2.187-1.507 2.286-1.576 2.386-1.58h.015c.138 0 .3.118.334.243.034.131-.003.286-.084.367-.105.101-4.18 2.893-4.278 2.93-.124.05-.505.047-.633-.003-.27-.105-.478-.4-.512-.72-.016-.166.048-.392.748-2.682.421-1.374.751-2.512.734-2.526-.012-.012-.828-.624-1.849-1.39l-.212-.159A95.112 95.112 0 0 1 .224 7.398a.91.91 0 0 1-.206-.778c.047-.219.266-.468.502-.57.161-.07.239-.073 2.802-.124 1.452-.03 2.647-.064 2.657-.077.01-.01.401-1.112.87-2.445.488-1.395.885-2.48.936-2.553zm7.91 8.838-2.116 2.888-.675-.005v-1.347c0-1.068 0-1.284-.106-1.372-.027-.022-.06-.036-.103-.054l-.013-.005c-.134-.058-.138-.058-.273.003-.209.091-.212.115-.212 1.516v1.263h-1.263c-1.414 0-1.428.003-1.519.225-.067.155-.033.29.095.398l.1.084h2.587v1.18l-.404.552.404.552v.316l.115.114c.094.094.19.133.284.115l2.173 2.968c.437.597.318 1.45-.264 1.898a1.295 1.295 0 0 1-1.852-.271l-1.173-1.6a676.158 676.158 0 0 1-2.928-4.01 1.309 1.309 0 0 0-2.117 0l-5.291 7.222c-.648.908-.026 2.182 1.058 2.182h23.812c1.084 0 1.706-1.274 1.058-2.168l-9.26-12.644a1.295 1.295 0 0 0-2.117 0zm-2.79 3.809v2.385l-.115.114a.38.38 0 0 1-.194.115l-.399-.545v-1.104l.708-.965zm.157-.215.517-.706 1.952.015.091.095c.075.074.095.124.095.246 0 .131-.017.168-.112.252l-.107.098h-2.436zm0 0h-.157v.215l.157-.215z" fill="#8F8C8C"/>
</svg>
