<svg width="24" height="25" viewBox="0 0 24 25" fill="none" xmlns="http://www.w3.org/2000/svg">
    <path d="m22.793 10.008-2.298-.46a9.084 9.084 0 0 0-.402-.967l1.302-1.953a1.5 1.5 0 0 0-.188-1.892l-1.443-1.443a1.497 1.497 0 0 0-1.892-.188l-1.953 1.302a9.064 9.064 0 0 0-.969-.402l-.46-2.299A1.499 1.499 0 0 0 13.02.5h-2.04a1.5 1.5 0 0 0-1.472 1.206l-.46 2.299a9.07 9.07 0 0 0-.967.402L6.13 3.106a1.496 1.496 0 0 0-1.893.187L2.794 4.736a1.5 1.5 0 0 0-.188 1.892l1.302 1.953a8.992 8.992 0 0 0-.402.968l-2.3.46A1.5 1.5 0 0 0 0 11.479v2.04a1.5 1.5 0 0 0 1.206 1.471l2.299.461c.115.332.251.655.402.967l-1.3 1.953a1.5 1.5 0 0 0 .187 1.892l1.443 1.443a1.497 1.497 0 0 0 1.892.188l1.953-1.302c.313.152.635.287.967.402l.46 2.299a1.5 1.5 0 0 0 1.471 1.206h2.04a1.5 1.5 0 0 0 1.47-1.206l.462-2.299a9.06 9.06 0 0 0 .967-.402l1.953 1.302a1.499 1.499 0 0 0 1.892-.188l1.443-1.443a1.5 1.5 0 0 0 .188-1.892l-1.302-1.953c.152-.313.287-.636.402-.968l2.298-.46A1.5 1.5 0 0 0 24 13.52v-2.04a1.5 1.5 0 0 0-1.207-1.472zm-2.592 3.972a1.498 1.498 0 0 0-1.123.979c-.096.276-.209.545-.335.805a1.497 1.497 0 0 0 .102 1.486l1.302 1.953-1.444 1.444-1.953-1.302a1.497 1.497 0 0 0-1.485-.103c-.26.126-.528.24-.806.336-.502.175-.873.601-.978 1.123L13.02 23h-2.04l-.46-2.3a1.498 1.498 0 0 0-.978-1.122 7.64 7.64 0 0 1-.806-.335 1.495 1.495 0 0 0-1.486.101l-1.953 1.302-1.443-1.443 1.301-1.953a1.502 1.502 0 0 0 .103-1.485 7.584 7.584 0 0 1-.336-.806A1.5 1.5 0 0 0 3.8 13.98l-2.298-.461-.002-2.04 2.3-.46a1.5 1.5 0 0 0 1.122-.979c.096-.276.208-.546.335-.806a1.496 1.496 0 0 0-.102-1.485l-1.3-1.954 1.442-1.442 1.953 1.3a1.498 1.498 0 0 0 1.485.104c.26-.127.528-.24.806-.337a1.5 1.5 0 0 0 .978-1.122l.46-2.298L13.02 2l.46 2.3c.104.52.476.947.979 1.122.277.096.545.208.805.335a1.498 1.498 0 0 0 1.487-.102l1.953-1.301 1.443 1.442-1.302 1.954a1.504 1.504 0 0 0-.103 1.485c.126.26.24.528.337.806.174.502.6.873 1.122.978l2.298.46.002 2.04-2.3.46z" fill="#FFD112"/>
    <path d="M12 7.25a5.25 5.25 0 0 0 0 10.5 5.251 5.251 0 0 0 0-10.5zm0 9.844a4.595 4.595 0 0 1 0-9.188 4.595 4.595 0 0 1 0 9.188z" fill="#FFD112"/>
    <path d="M12 9.5a3 3 0 1 0 0 6 3 3 0 0 0 0-6zm0 5.25a2.25 2.25 0 1 1 .002-4.502A2.25 2.25 0 0 1 12 14.75z" fill="#FFD112"/>
</svg>
