<svg width="24" height="25" viewBox="0 0 24 25" fill="none" xmlns="http://www.w3.org/2000/svg">
    <path fill-rule="evenodd" clip-rule="evenodd" d="m.578 7.647 10.475 5.285c.176.09.375.136.578.136.203 0 .403-.047.579-.136l10.474-5.285c.177-.09.323-.217.425-.371a.916.916 0 0 0 .155-.507.917.917 0 0 0-.156-.507 1.097 1.097 0 0 0-.426-.37L12.207.634A1.287 1.287 0 0 0 11.632.5c-.202 0-.4.046-.576.134L.581 5.892a1.097 1.097 0 0 0-.425.37.917.917 0 0 0-.156.507c0 .178.053.353.155.507.102.154.248.282.424.37H.578zM11.63 2.679l8.155 4.093-8.155 4.115-8.155-4.115 8.155-4.093z" fill="#8F8C8C"/>
    <path d="m21.539 11.77-9.908 4.877-9.783-4.815a1.304 1.304 0 0 0-.88-.093 1.145 1.145 0 0 0-.695.479.901.901 0 0 0-.106.77c.083.258.28.477.547.609l10.35 5.094c.173.085.368.13.567.13.199 0 .394-.045.567-.13l10.475-5.156c.268-.131.464-.35.547-.61a.901.901 0 0 0-.106-.768 1.063 1.063 0 0 0-.293-.3 1.226 1.226 0 0 0-.403-.179 1.303 1.303 0 0 0-.879.093z" fill="#8F8C8C"/>
    <path d="m11.631 22.327 9.908-4.877c.267-.132.584-.165.88-.092.145.035.282.096.402.178.12.082.219.184.293.3.15.234.189.51.106.77-.083.258-.28.477-.547.608L12.198 24.37c-.173.085-.368.13-.567.13-.199 0-.394-.045-.567-.13L.714 19.276a1.047 1.047 0 0 1-.547-.61.89.89 0 0 1 .106-.769c.15-.234.4-.406.696-.478a1.314 1.314 0 0 1 .879.092l9.783 4.816z" fill="#8F8C8C"/>
</svg>
